<svg xmlns="http://www.w3.org/2000/svg" width="24" height="24" viewBox="0 0 24 24" fill="none">
  <mask id="mask0_13659_3306" style="mask-type:alpha" maskUnits="userSpaceOnUse" x="0" y="0" width="24" height="24">
    <path d="M24 0H0V24H24V0Z" fill="#222222"/>
  </mask>
  <g mask="url(#mask0_13659_3306)">
    <path fill-rule="evenodd" clip-rule="evenodd" d="M4.20156 12.8667C4.53293 12.8667 4.80156 13.1353 4.80156 13.4667V18H19.7349V13.4667C19.7349 13.1353 20.0035 12.8667 20.3349 12.8667C20.6663 12.8667 20.9349 13.1353 20.9349 13.4667V18.6C20.9349 18.9314 20.6663 19.2 20.3349 19.2H4.20156C3.87019 19.2 3.60156 18.9314 3.60156 18.6V13.4667C3.60156 13.1353 3.87019 12.8667 4.20156 12.8667Z" fill="currentColor"/>
    <path fill-rule="evenodd" clip-rule="evenodd" d="M8.1315 11.6254C8.33851 11.3666 8.71608 11.3246 8.97484 11.5316L12.2667 14.1651L15.5585 11.5316C15.8173 11.3246 16.1949 11.3666 16.4019 11.6254C16.6089 11.8841 16.5669 12.2617 16.3082 12.4687L12.6415 15.402C12.4224 15.5773 12.111 15.5773 11.8919 15.402L8.22521 12.4687C7.96645 12.2617 7.9245 11.8841 8.1315 11.6254Z" fill="currentColor"/>
    <path fill-rule="evenodd" clip-rule="evenodd" d="M12.268 4.80005C12.5993 4.80005 12.868 5.06868 12.868 5.40005V14.9334C12.868 15.2648 12.5993 15.5334 12.268 15.5334C11.9366 15.5334 11.668 15.2648 11.668 14.9334V5.40005C11.668 5.06868 11.9366 4.80005 12.268 4.80005Z" fill="currentColor"/>
  </g>
</svg>